<svg width="60" height="80" viewBox="0 0 60 80" fill="none" xmlns="http://www.w3.org/2000/svg">
<rect x="0.5" y="0.5" width="59" height="79" fill="white"/>
<path d="M21.4418 25.9091V55H17.919V29.6023H17.7486L10.6463 34.3182V30.7386L17.919 25.9091H21.4418ZM39.2969 55.3977C37.1567 55.3977 35.3338 54.8153 33.8281 53.6506C32.3224 52.4763 31.1719 50.7765 30.3764 48.5511C29.581 46.3163 29.1832 43.6174 29.1832 40.4545C29.1832 37.3106 29.581 34.6259 30.3764 32.4006C31.1813 30.1657 32.3366 28.4612 33.8423 27.2869C35.3575 26.1032 37.1757 25.5114 39.2969 25.5114C41.4181 25.5114 43.2315 26.1032 44.7372 27.2869C46.2524 28.4612 47.4077 30.1657 48.2031 32.4006C49.008 34.6259 49.4105 37.3106 49.4105 40.4545C49.4105 43.6174 49.0128 46.3163 48.2173 48.5511C47.4219 50.7765 46.2713 52.4763 44.7656 53.6506C43.2599 54.8153 41.437 55.3977 39.2969 55.3977ZM39.2969 52.2727C41.4181 52.2727 43.0658 51.25 44.2401 49.2045C45.4143 47.1591 46.0014 44.2424 46.0014 40.4545C46.0014 37.9356 45.7315 35.7907 45.1918 34.0199C44.6615 32.2491 43.8944 30.8996 42.8906 29.9716C41.8963 29.0436 40.6984 28.5795 39.2969 28.5795C37.1946 28.5795 35.5516 29.6165 34.3679 31.6903C33.1842 33.7547 32.5923 36.6761 32.5923 40.4545C32.5923 42.9735 32.8575 45.1136 33.3878 46.875C33.9181 48.6364 34.6804 49.9763 35.6747 50.8949C36.6785 51.8134 37.8859 52.2727 39.2969 52.2727Z" fill="#A40038"/>
<rect x="0.5" y="0.5" width="59" height="79" stroke="#A40038"/>
</svg>
