<svg width="60" height="80" viewBox="0 0 60 80" fill="none" xmlns="http://www.w3.org/2000/svg">
<rect x="0.5" y="0.5" width="59" height="79" fill="white"/>
<path d="M20.902 55V52.4432L30.5043 41.9318C31.6312 40.7008 32.5592 39.6307 33.2884 38.7216C34.0175 37.803 34.5573 36.9413 34.9077 36.1364C35.2675 35.322 35.4474 34.4697 35.4474 33.5795C35.4474 32.5568 35.2012 31.6714 34.7088 30.9233C34.2259 30.1752 33.563 29.5975 32.7202 29.1903C31.8774 28.7831 30.9304 28.5795 29.8793 28.5795C28.7618 28.5795 27.7865 28.8116 26.9531 29.2756C26.1293 29.7301 25.4901 30.3693 25.0355 31.1932C24.5904 32.017 24.3679 32.983 24.3679 34.0909H21.0156C21.0156 32.3864 21.4086 30.8902 22.1946 29.6023C22.9806 28.3144 24.0507 27.3106 25.4048 26.5909C26.7685 25.8712 28.2978 25.5114 29.9929 25.5114C31.6974 25.5114 33.2079 25.8712 34.5241 26.5909C35.8404 27.3106 36.8726 28.2812 37.6207 29.5028C38.3688 30.7244 38.7429 32.0833 38.7429 33.5795C38.7429 34.6496 38.5488 35.696 38.1605 36.7188C37.7817 37.732 37.1188 38.8636 36.1719 40.1136C35.2344 41.3542 33.9323 42.8693 32.2656 44.6591L25.7315 51.6477V51.875H39.2543V55H20.902Z" fill="#A40038"/>
<rect x="0.5" y="0.5" width="59" height="79" stroke="#A40038"/>
</svg>
