<svg width="60" height="80" viewBox="0 0 60 80" fill="none" xmlns="http://www.w3.org/2000/svg">
<rect x="0.5" y="0.5" width="59" height="79" fill="white"/>
<path d="M30.19 55.3977C28.9968 55.3788 27.8036 55.1515 26.6104 54.7159C25.4173 54.2803 24.3282 53.5464 23.3434 52.5142C22.3585 51.4725 21.5678 50.0663 20.9712 48.2955C20.3746 46.5152 20.0763 44.2803 20.0763 41.5909C20.0763 39.0152 20.3178 36.733 20.8008 34.7443C21.2837 32.7462 21.9845 31.0653 22.9031 29.7017C23.8216 28.3286 24.9296 27.2869 26.2269 26.5767C27.5337 25.8665 29.0063 25.5114 30.6445 25.5114C32.2733 25.5114 33.7222 25.8381 34.9911 26.4915C36.2695 27.1354 37.3112 28.035 38.1161 29.1903C38.921 30.3456 39.4419 31.6761 39.6786 33.1818H36.2127C35.8907 31.875 35.2657 30.7907 34.3377 29.929C33.4097 29.0672 32.1786 28.6364 30.6445 28.6364C28.3907 28.6364 26.6152 29.6165 25.3178 31.5767C24.0299 33.5369 23.3813 36.2879 23.3718 39.8295H23.5991C24.1294 39.0246 24.7591 38.3381 25.4883 37.7699C26.2269 37.1922 27.0413 36.7472 27.9315 36.4347C28.8216 36.1222 29.7638 35.9659 30.7582 35.9659C32.4248 35.9659 33.9495 36.3826 35.332 37.2159C36.7146 38.0398 37.8226 39.1809 38.6559 40.6392C39.4892 42.0881 39.9059 43.75 39.9059 45.625C39.9059 47.4242 39.5034 49.072 38.6985 50.5682C37.8936 52.0549 36.762 53.2386 35.3036 54.1193C33.8548 54.9905 32.1502 55.4167 30.19 55.3977ZM30.19 52.2727C31.3832 52.2727 32.4532 51.9744 33.4002 51.3778C34.3567 50.7812 35.1095 49.9811 35.6587 48.9773C36.2174 47.9735 36.4968 46.8561 36.4968 45.625C36.4968 44.4223 36.2269 43.3286 35.6871 42.3438C35.1568 41.3494 34.4229 40.5587 33.4854 39.9716C32.5574 39.3845 31.4968 39.0909 30.3036 39.0909C29.404 39.0909 28.5659 39.2708 27.7894 39.6307C27.0129 39.9811 26.3311 40.464 25.744 41.0795C25.1663 41.6951 24.7118 42.4006 24.3803 43.196C24.0489 43.982 23.8832 44.8106 23.8832 45.6818C23.8832 46.8371 24.1531 47.9167 24.6928 48.9205C25.2421 49.9242 25.9902 50.7339 26.9371 51.3494C27.8936 51.965 28.9779 52.2727 30.19 52.2727Z" fill="#A40038"/>
<rect x="0.5" y="0.5" width="59" height="79" stroke="#A40038"/>
</svg>
