<svg width="60" height="80" viewBox="0 0 60 80" fill="none" xmlns="http://www.w3.org/2000/svg">
<rect x="0.5" y="0.5" width="59" height="79" fill="white"/>
<path d="M29.7923 25.5114C30.9854 25.5208 32.1786 25.7481 33.3718 26.1932C34.565 26.6383 35.654 27.3769 36.6388 28.4091C37.6237 29.4318 38.4144 30.8286 39.011 32.5994C39.6076 34.3703 39.9059 36.5909 39.9059 39.2614C39.9059 41.8466 39.6597 44.143 39.1673 46.1506C38.6843 48.1487 37.9835 49.8343 37.065 51.2074C36.1559 52.5805 35.0479 53.6222 33.7411 54.3324C32.4438 55.0426 30.976 55.3977 29.3377 55.3977C27.7089 55.3977 26.2553 55.0758 24.9769 54.4318C23.708 53.7784 22.6663 52.8741 21.8519 51.7188C21.047 50.554 20.5309 49.2045 20.3036 47.6705H23.7695C24.082 49.0057 24.7023 50.1089 25.6303 50.9801C26.5678 51.8419 27.8036 52.2727 29.3377 52.2727C31.582 52.2727 33.3529 51.2926 34.6502 49.3324C35.957 47.3722 36.6104 44.6023 36.6104 41.0227H36.3832C35.8529 41.8182 35.2231 42.5047 34.494 43.0824C33.7648 43.66 32.9551 44.1051 32.065 44.4176C31.1748 44.7301 30.2279 44.8864 29.2241 44.8864C27.5574 44.8864 26.0281 44.4744 24.636 43.6506C23.2534 42.8172 22.1455 41.6761 21.3121 40.2273C20.4883 38.7689 20.0763 37.1023 20.0763 35.2273C20.0763 33.447 20.4741 31.8182 21.2695 30.3409C22.0745 28.8542 23.2013 27.6705 24.6502 26.7898C26.1085 25.9091 27.8226 25.483 29.7923 25.5114ZM29.7923 28.6364C28.5991 28.6364 27.5243 28.9347 26.5678 29.5312C25.6209 30.1184 24.868 30.9138 24.3093 31.9176C23.7601 32.9119 23.4854 34.0152 23.4854 35.2273C23.4854 36.4394 23.7506 37.5426 24.2809 38.5369C24.8207 39.5218 25.5546 40.3078 26.4826 40.8949C27.4201 41.4725 28.4854 41.7614 29.6786 41.7614C30.5782 41.7614 31.4163 41.5862 32.1928 41.2358C32.9693 40.8759 33.6464 40.3883 34.2241 39.7727C34.8112 39.1477 35.2705 38.4422 35.6019 37.6562C35.9334 36.8608 36.0991 36.0322 36.0991 35.1705C36.0991 34.0341 35.8245 32.9687 35.2752 31.9744C34.7354 30.9801 33.9873 30.1752 33.0309 29.5597C32.0839 28.9441 31.0044 28.6364 29.7923 28.6364Z" fill="#A40038"/>
<rect x="0.5" y="0.5" width="59" height="79" stroke="#A40038"/>
</svg>
