<svg width="60" height="80" viewBox="0 0 60 80" fill="none" xmlns="http://www.w3.org/2000/svg">
<rect x="0.5" y="0.5" width="59" height="79" fill="white"/>
<path d="M21.8324 25.9091V55H18.3097V29.6023H18.1392L11.0369 34.3182V30.7386L18.3097 25.9091H21.8324ZM30.1989 55V52.4432L39.8011 41.9318C40.928 40.7008 41.8561 39.6307 42.5852 38.7216C43.3144 37.803 43.8542 36.9413 44.2045 36.1364C44.5644 35.322 44.7443 34.4697 44.7443 33.5795C44.7443 32.5568 44.4981 31.6714 44.0057 30.9233C43.5227 30.1752 42.8598 29.5975 42.017 29.1903C41.1742 28.7831 40.2273 28.5795 39.1761 28.5795C38.0587 28.5795 37.0833 28.8116 36.25 29.2756C35.4261 29.7301 34.7869 30.3693 34.3324 31.1932C33.8873 32.017 33.6648 32.983 33.6648 34.0909H30.3125C30.3125 32.3864 30.7055 30.8902 31.4915 29.6023C32.2775 28.3144 33.3475 27.3106 34.7017 26.5909C36.0653 25.8712 37.5947 25.5114 39.2898 25.5114C40.9943 25.5114 42.5047 25.8712 43.821 26.5909C45.1373 27.3106 46.1695 28.2812 46.9176 29.5028C47.6657 30.7244 48.0398 32.0833 48.0398 33.5795C48.0398 34.6496 47.8456 35.696 47.4574 36.7188C47.0786 37.732 46.4157 38.8636 45.4688 40.1136C44.5312 41.3542 43.2292 42.8693 41.5625 44.6591L35.0284 51.6477V51.875H48.5511V55H30.1989Z" fill="#4E7026"/>
<rect x="0.5" y="0.5" width="59" height="79" stroke="#4E7026"/>
</svg>
