<svg width="60" height="80" viewBox="0 0 60 80" fill="none" xmlns="http://www.w3.org/2000/svg">
<rect x="0.5" y="0.5" width="59" height="79" fill="white"/>
<path d="M29.9343 55.3977C28.2676 55.3977 26.7667 55.0663 25.4315 54.4034C24.0962 53.7405 23.0262 52.8314 22.2212 51.6761C21.4163 50.5208 20.976 49.2045 20.9002 47.7273H24.3093C24.4419 49.0436 25.0385 50.1326 26.0991 50.9943C27.1692 51.8466 28.4476 52.2727 29.9343 52.2727C31.1275 52.2727 32.1881 51.9934 33.1161 51.4347C34.0536 50.8759 34.7875 50.1089 35.3178 49.1335C35.8576 48.1487 36.1275 47.036 36.1275 45.7955C36.1275 44.5265 35.8481 43.3949 35.2894 42.4006C34.7402 41.3968 33.9826 40.6061 33.0167 40.0284C32.0508 39.4508 30.9476 39.1572 29.707 39.1477C28.8169 39.1383 27.9031 39.2756 26.9656 39.5597C26.0281 39.8343 25.2563 40.1894 24.6502 40.625L21.3548 40.2273L23.1161 25.9091H38.2298V29.0341H26.0707L25.0479 37.6136H25.2184C25.815 37.1402 26.5631 36.7472 27.4627 36.4347C28.3623 36.1222 29.2998 35.9659 30.2752 35.9659C32.0555 35.9659 33.6417 36.392 35.0337 37.2443C36.4353 38.0871 37.5337 39.2424 38.3292 40.7102C39.1341 42.178 39.5366 43.8542 39.5366 45.7386C39.5366 47.5947 39.1199 49.2519 38.2866 50.7102C37.4627 52.1591 36.3263 53.3049 34.8775 54.1477C33.4286 54.9811 31.7809 55.3977 29.9343 55.3977Z" fill="#4E7026"/>
<rect x="0.5" y="0.5" width="59" height="79" stroke="#4E7026"/>
</svg>
