<svg width="60" height="80" viewBox="0 0 60 80" fill="none" xmlns="http://www.w3.org/2000/svg">
<rect x="0.5" y="0.5" width="59" height="79" fill="white"/>
<path d="M21.4613 25.9091V55H17.9386V29.6023H17.7681L10.6658 34.3182V30.7386L17.9386 25.9091H21.4613ZM39.0891 25.5114C40.2823 25.5208 41.4755 25.7481 42.6687 26.1932C43.8619 26.6383 44.9509 27.3769 45.9357 28.4091C46.9206 29.4318 47.7113 30.8286 48.3079 32.5994C48.9045 34.3703 49.2028 36.5909 49.2028 39.2614C49.2028 41.8466 48.9566 44.143 48.4641 46.1506C47.9812 48.1487 47.2804 49.8343 46.3619 51.2074C45.4528 52.5805 44.3448 53.6222 43.038 54.3324C41.7406 55.0426 40.2728 55.3977 38.6346 55.3977C37.0058 55.3977 35.5522 55.0758 34.2738 54.4318C33.0049 53.7784 31.9632 52.8741 31.1488 51.7188C30.3439 50.554 29.8278 49.2045 29.6005 47.6705H33.0664C33.3789 49.0057 33.9992 50.1089 34.9272 50.9801C35.8647 51.8419 37.1005 52.2727 38.6346 52.2727C40.8789 52.2727 42.6497 51.2926 43.9471 49.3324C45.2539 47.3722 45.9073 44.6023 45.9073 41.0227H45.68C45.1497 41.8182 44.52 42.5047 43.7908 43.0824C43.0617 43.66 42.252 44.1051 41.3619 44.4176C40.4717 44.7301 39.5247 44.8864 38.521 44.8864C36.8543 44.8864 35.3249 44.4744 33.9329 43.6506C32.5503 42.8172 31.4424 41.6761 30.609 40.2273C29.7852 38.7689 29.3732 37.1023 29.3732 35.2273C29.3732 33.447 29.771 31.8182 30.5664 30.3409C31.3713 28.8542 32.4982 27.6705 33.9471 26.7898C35.4054 25.9091 37.1194 25.483 39.0891 25.5114ZM39.0891 28.6364C37.896 28.6364 36.8211 28.9347 35.8647 29.5312C34.9177 30.1184 34.1649 30.9138 33.6062 31.9176C33.0569 32.9119 32.7823 34.0152 32.7823 35.2273C32.7823 36.4394 33.0475 37.5426 33.5778 38.5369C34.1175 39.5218 34.8514 40.3078 35.7795 40.8949C36.717 41.4725 37.7823 41.7614 38.9755 41.7614C39.8751 41.7614 40.7132 41.5862 41.4897 41.2358C42.2662 40.8759 42.9433 40.3883 43.521 39.7727C44.1081 39.1477 44.5674 38.4422 44.8988 37.6562C45.2302 36.8608 45.396 36.0322 45.396 35.1705C45.396 34.0341 45.1213 32.9687 44.5721 31.9744C44.0323 30.9801 43.2842 30.1752 42.3278 29.5597C41.3808 28.9441 40.3013 28.6364 39.0891 28.6364Z" fill="#DF892E"/>
<rect x="0.5" y="0.5" width="59" height="79" stroke="#DF892E"/>
</svg>
