<svg width="60" height="80" viewBox="0 0 60 80" fill="none" xmlns="http://www.w3.org/2000/svg">
<rect x="0.5" y="0.5" width="59" height="79" fill="white"/>
<path d="M30.0053 55.3977C28.0546 55.3977 26.3311 55.0521 24.8349 54.3608C23.3481 53.66 22.1881 52.6989 21.3548 51.4773C20.5214 50.2462 20.1095 48.8447 20.119 47.2727C20.1095 46.0417 20.351 44.9053 20.8434 43.8636C21.3358 42.8125 22.0082 41.9366 22.8604 41.2358C23.7222 40.5256 24.6834 40.0758 25.744 39.8864V39.7159C24.3519 39.3561 23.244 38.5748 22.4201 37.3722C21.5962 36.16 21.189 34.7822 21.1985 33.2386C21.189 31.7614 21.5631 30.4403 22.3207 29.2756C23.0782 28.1108 24.1199 27.1922 25.4457 26.5199C26.7809 25.8475 28.3008 25.5114 30.0053 25.5114C31.6909 25.5114 33.1966 25.8475 34.5224 26.5199C35.8481 27.1922 36.8898 28.1108 37.6474 29.2756C38.4144 30.4403 38.8027 31.7614 38.8121 33.2386C38.8027 34.7822 38.3813 36.16 37.5479 37.3722C36.7241 38.5748 35.6303 39.3561 34.2667 39.7159V39.8864C35.3178 40.0758 36.2648 40.5256 37.1076 41.2358C37.9504 41.9366 38.6228 42.8125 39.1246 43.8636C39.6265 44.9053 39.8822 46.0417 39.8917 47.2727C39.8822 48.8447 39.4561 50.2462 38.6133 51.4773C37.7799 52.6989 36.6199 53.66 35.1332 54.3608C33.6559 55.0521 31.9466 55.3977 30.0053 55.3977ZM30.0053 52.2727C31.3216 52.2727 32.458 52.0597 33.4144 51.6335C34.3709 51.2074 35.1095 50.6061 35.6303 49.8295C36.1512 49.053 36.4163 48.1439 36.4258 47.1023C36.4163 46.0038 36.1322 45.0331 35.5735 44.1903C35.0148 43.3475 34.2525 42.6847 33.2866 42.2017C32.3301 41.7187 31.2364 41.4773 30.0053 41.4773C28.7648 41.4773 27.6568 41.7187 26.6815 42.2017C25.7156 42.6847 24.9532 43.3475 24.3945 44.1903C23.8453 45.0331 23.5754 46.0038 23.5849 47.1023C23.5754 48.1439 23.8263 49.053 24.3377 49.8295C24.8585 50.6061 25.6019 51.2074 26.5678 51.6335C27.5337 52.0597 28.6796 52.2727 30.0053 52.2727ZM30.0053 38.4659C31.047 38.4659 31.9703 38.2576 32.7752 37.8409C33.5896 37.4242 34.2288 36.8419 34.6928 36.0938C35.1568 35.3456 35.3936 34.4697 35.4031 33.4659C35.3936 32.4811 35.1616 31.6241 34.707 30.8949C34.2525 30.1562 33.6228 29.5881 32.8178 29.1903C32.0129 28.7831 31.0754 28.5795 30.0053 28.5795C28.9163 28.5795 27.9646 28.7831 27.1502 29.1903C26.3358 29.5881 25.7061 30.1562 25.261 30.8949C24.8159 31.6241 24.5981 32.4811 24.6076 33.4659C24.5981 34.4697 24.8207 35.3456 25.2752 36.0938C25.7392 36.8419 26.3784 37.4242 27.1928 37.8409C28.0072 38.2576 28.9447 38.4659 30.0053 38.4659Z" fill="#DF892E"/>
<rect x="0.5" y="0.5" width="59" height="79" stroke="#DF892E"/>
</svg>
