<svg width="60" height="80" viewBox="0 0 60 80" fill="none" xmlns="http://www.w3.org/2000/svg">
<rect x="0.5" y="0.5" width="59" height="79" fill="white"/>
<path d="M21.6175 25.9091V55H18.0948V29.6023H17.9244L10.8221 34.3182V30.7386L18.0948 25.9091H21.6175ZM39.3022 55.3977C37.3514 55.3977 35.628 55.0521 34.1317 54.3608C32.645 53.66 31.485 52.6989 30.6516 51.4773C29.8183 50.2462 29.4064 48.8447 29.4158 47.2727C29.4064 46.0417 29.6478 44.9053 30.1403 43.8636C30.6327 42.8125 31.305 41.9366 32.1573 41.2358C33.0191 40.5256 33.9802 40.0758 35.0408 39.8864V39.7159C33.6488 39.3561 32.5408 38.5748 31.717 37.3722C30.8931 36.16 30.4859 34.7822 30.4954 33.2386C30.4859 31.7614 30.86 30.4403 31.6175 29.2756C32.3751 28.1108 33.4168 27.1922 34.7425 26.5199C36.0778 25.8475 37.5977 25.5114 39.3022 25.5114C40.9878 25.5114 42.4935 25.8475 43.8192 26.5199C45.145 27.1922 46.1867 28.1108 46.9442 29.2756C47.7113 30.4403 48.0996 31.7614 48.109 33.2386C48.0996 34.7822 47.6781 36.16 46.8448 37.3722C46.021 38.5748 44.9272 39.3561 43.5636 39.7159V39.8864C44.6147 40.0758 45.5617 40.5256 46.4045 41.2358C47.2473 41.9366 47.9196 42.8125 48.4215 43.8636C48.9234 44.9053 49.1791 46.0417 49.1886 47.2727C49.1791 48.8447 48.753 50.2462 47.9102 51.4773C47.0768 52.6989 45.9168 53.66 44.43 54.3608C42.9528 55.0521 41.2435 55.3977 39.3022 55.3977ZM39.3022 52.2727C40.6185 52.2727 41.7549 52.0597 42.7113 51.6335C43.6677 51.2074 44.4064 50.6061 44.9272 49.8295C45.448 49.053 45.7132 48.1439 45.7227 47.1023C45.7132 46.0038 45.4291 45.0331 44.8704 44.1903C44.3117 43.3475 43.5494 42.6847 42.5835 42.2017C41.627 41.7187 40.5333 41.4773 39.3022 41.4773C38.0617 41.4773 36.9537 41.7187 35.9783 42.2017C35.0124 42.6847 34.2501 43.3475 33.6914 44.1903C33.1422 45.0331 32.8723 46.0038 32.8817 47.1023C32.8723 48.1439 33.1232 49.053 33.6346 49.8295C34.1554 50.6061 34.8988 51.2074 35.8647 51.6335C36.8306 52.0597 37.9764 52.2727 39.3022 52.2727ZM39.3022 38.4659C40.3439 38.4659 41.2672 38.2576 42.0721 37.8409C42.8865 37.4242 43.5257 36.8419 43.9897 36.0938C44.4537 35.3456 44.6905 34.4697 44.6999 33.4659C44.6905 32.4811 44.4585 31.6241 44.0039 30.8949C43.5494 30.1562 42.9196 29.5881 42.1147 29.1903C41.3098 28.7831 40.3723 28.5795 39.3022 28.5795C38.2132 28.5795 37.2615 28.7831 36.4471 29.1903C35.6327 29.5881 35.003 30.1562 34.5579 30.8949C34.1128 31.6241 33.895 32.4811 33.9045 33.4659C33.895 34.4697 34.1175 35.3456 34.5721 36.0938C35.0361 36.8419 35.6753 37.4242 36.4897 37.8409C37.3041 38.2576 38.2416 38.4659 39.3022 38.4659Z" fill="#09177E"/>
<rect x="0.5" y="0.5" width="59" height="79" stroke="#09177E"/>
</svg>
