<svg width="60" height="80" viewBox="0 0 60 80" fill="none" xmlns="http://www.w3.org/2000/svg">
<rect x="0.5" y="0.5" width="59" height="79" fill="white"/>
<path d="M30.1065 55.3977C28.2315 55.3977 26.5601 55.0758 25.0923 54.4318C23.634 53.7879 22.474 52.893 21.6122 51.7472C20.7599 50.5919 20.2959 49.2519 20.2202 47.7273H23.7997C23.8755 48.6648 24.1974 49.4744 24.7656 50.1562C25.3338 50.8286 26.0772 51.3494 26.9957 51.7188C27.9143 52.0881 28.9323 52.2727 30.0497 52.2727C31.2997 52.2727 32.4077 52.0549 33.3736 51.6193C34.3395 51.1837 35.0971 50.5777 35.6463 49.8011C36.1955 49.0246 36.4702 48.125 36.4702 47.1023C36.4702 46.0322 36.205 45.09 35.6747 44.2756C35.1444 43.4517 34.3679 42.8078 33.3452 42.3438C32.3224 41.8797 31.0724 41.6477 29.5952 41.6477H27.2656V38.5227H29.5952C30.7505 38.5227 31.7637 38.3144 32.6349 37.8977C33.5156 37.4811 34.2022 36.8939 34.6946 36.1364C35.1965 35.3788 35.4474 34.4886 35.4474 33.4659C35.4474 32.4811 35.2296 31.6241 34.794 30.8949C34.3584 30.1657 33.7429 29.5975 32.9474 29.1903C32.1615 28.7831 31.2334 28.5795 30.1634 28.5795C29.1596 28.5795 28.2126 28.7642 27.3224 29.1335C26.4418 29.4934 25.7221 30.0189 25.1634 30.7102C24.6046 31.392 24.3016 32.2159 24.2543 33.1818H20.8452C20.902 31.6572 21.3613 30.322 22.223 29.1761C23.0848 28.0208 24.2116 27.1212 25.6037 26.4773C27.0052 25.8333 28.544 25.5114 30.2202 25.5114C32.0194 25.5114 33.563 25.8759 34.8509 26.6051C36.1387 27.3248 37.1283 28.2765 37.8196 29.4602C38.5109 30.6439 38.8565 31.9223 38.8565 33.2955C38.8565 34.9337 38.4257 36.3305 37.5639 37.4858C36.7116 38.6411 35.5516 39.4413 34.0838 39.8864V40.1136C35.9209 40.4167 37.3556 41.1979 38.3878 42.4574C39.42 43.7074 39.9361 45.2557 39.9361 47.1023C39.9361 48.6837 39.5052 50.1042 38.6435 51.3636C37.7912 52.6136 36.6264 53.5985 35.1491 54.3182C33.6719 55.0379 31.991 55.3977 30.1065 55.3977Z" fill="#09177E"/>
<rect x="0.5" y="0.5" width="59" height="79" stroke="#09177E"/>
</svg>
