<svg width="60" height="80" viewBox="0 0 60 80" fill="none" xmlns="http://www.w3.org/2000/svg">
<rect x="0.5" y="0.5" width="59" height="79" fill="white"/>
<path d="M21.2074 25.9091V55H17.6847V29.6023H17.5142L10.4119 34.3182V30.7386L17.6847 25.9091H21.2074ZM39.4034 55.3977C37.5284 55.3977 35.857 55.0758 34.3892 54.4318C32.9309 53.7879 31.7708 52.893 30.9091 51.7472C30.0568 50.5919 29.5928 49.2519 29.517 47.7273H33.0966C33.1723 48.6648 33.4943 49.4744 34.0625 50.1562C34.6307 50.8286 35.3741 51.3494 36.2926 51.7188C37.2112 52.0881 38.2292 52.2727 39.3466 52.2727C40.5966 52.2727 41.7045 52.0549 42.6705 51.6193C43.6364 51.1837 44.3939 50.5777 44.9432 49.8011C45.4924 49.0246 45.767 48.125 45.767 47.1023C45.767 46.0322 45.5019 45.09 44.9716 44.2756C44.4413 43.4517 43.6648 42.8078 42.642 42.3438C41.6193 41.8797 40.3693 41.6477 38.892 41.6477H36.5625V38.5227H38.892C40.0473 38.5227 41.0606 38.3144 41.9318 37.8977C42.8125 37.4811 43.4991 36.8939 43.9915 36.1364C44.4934 35.3788 44.7443 34.4886 44.7443 33.4659C44.7443 32.4811 44.5265 31.6241 44.0909 30.8949C43.6553 30.1657 43.0398 29.5975 42.2443 29.1903C41.4583 28.7831 40.5303 28.5795 39.4602 28.5795C38.4564 28.5795 37.5095 28.7642 36.6193 29.1335C35.7386 29.4934 35.0189 30.0189 34.4602 30.7102C33.9015 31.392 33.5985 32.2159 33.5511 33.1818H30.142C30.1989 31.6572 30.6581 30.322 31.5199 29.1761C32.3816 28.0208 33.5085 27.1212 34.9006 26.4773C36.3021 25.8333 37.8409 25.5114 39.517 25.5114C41.3163 25.5114 42.8598 25.8759 44.1477 26.6051C45.4356 27.3248 46.4252 28.2765 47.1165 29.4602C47.8078 30.6439 48.1534 31.9223 48.1534 33.2955C48.1534 34.9337 47.7225 36.3305 46.8608 37.4858C46.0085 38.6411 44.8485 39.4413 43.3807 39.8864V40.1136C45.2178 40.4167 46.6525 41.1979 47.6847 42.4574C48.7169 43.7074 49.233 45.2557 49.233 47.1023C49.233 48.6837 48.8021 50.1042 47.9403 51.3636C47.0881 52.6136 45.9233 53.5985 44.446 54.3182C42.9688 55.0379 41.2879 55.3977 39.4034 55.3977Z" fill="#4E7026"/>
<rect x="0.5" y="0.5" width="59" height="79" stroke="#4E7026"/>
</svg>
