<svg width="60" height="80" viewBox="0 0 60 80" fill="none" xmlns="http://www.w3.org/2000/svg">
<rect x="0.5" y="0.5" width="59" height="79" fill="white"/>
<path d="M21.4613 25.9091V55H17.9386V29.6023H17.7681L10.6658 34.3182V30.7386L17.9386 25.9091H21.4613ZM39.4869 55.3977C38.2937 55.3788 37.1005 55.1515 35.9073 54.7159C34.7141 54.2803 33.6251 53.5464 32.6403 52.5142C31.6554 51.4725 30.8647 50.0663 30.2681 48.2955C29.6715 46.5152 29.3732 44.2803 29.3732 41.5909C29.3732 39.0152 29.6147 36.733 30.0977 34.7443C30.5806 32.7462 31.2814 31.0653 32.1999 29.7017C33.1185 28.3286 34.2264 27.2869 35.5238 26.5767C36.8306 25.8665 38.3031 25.5114 39.9414 25.5114C41.5702 25.5114 43.0191 25.8381 44.288 26.4915C45.5664 27.1354 46.6081 28.035 47.413 29.1903C48.2179 30.3456 48.7388 31.6761 48.9755 33.1818H45.5096C45.1876 31.875 44.5626 30.7907 43.6346 29.929C42.7066 29.0672 41.4755 28.6364 39.9414 28.6364C37.6876 28.6364 35.9121 29.6165 34.6147 31.5767C33.3268 33.5369 32.6781 36.2879 32.6687 39.8295H32.896C33.4263 39.0246 34.056 38.3381 34.7852 37.7699C35.5238 37.1922 36.3382 36.7472 37.2283 36.4347C38.1185 36.1222 39.0607 35.9659 40.055 35.9659C41.7217 35.9659 43.2463 36.3826 44.6289 37.2159C46.0115 38.0398 47.1194 39.1809 47.9528 40.6392C48.7861 42.0881 49.2028 43.75 49.2028 45.625C49.2028 47.4242 48.8003 49.072 47.9954 50.5682C47.1905 52.0549 46.0588 53.2386 44.6005 54.1193C43.1516 54.9905 41.4471 55.4167 39.4869 55.3977ZM39.4869 52.2727C40.68 52.2727 41.7501 51.9744 42.6971 51.3778C43.6535 50.7812 44.4064 49.9811 44.9556 48.9773C45.5143 47.9735 45.7937 46.8561 45.7937 45.625C45.7937 44.4223 45.5238 43.3286 44.984 42.3438C44.4537 41.3494 43.7198 40.5587 42.7823 39.9716C41.8543 39.3845 40.7937 39.0909 39.6005 39.0909C38.7009 39.0909 37.8628 39.2708 37.0863 39.6307C36.3098 39.9811 35.628 40.464 35.0408 41.0795C34.4632 41.6951 34.0086 42.4006 33.6772 43.196C33.3458 43.982 33.18 44.8106 33.18 45.6818C33.18 46.8371 33.4499 47.9167 33.9897 48.9205C34.5389 49.9242 35.2871 50.7339 36.234 51.3494C37.1905 51.965 38.2747 52.2727 39.4869 52.2727Z" fill="#4E7026"/>
<rect x="0.5" y="0.5" width="59" height="79" stroke="#4E7026"/>
</svg>
