<svg width="60" height="80" viewBox="0 0 60 80" fill="none" xmlns="http://www.w3.org/2000/svg">
<rect x="0.5" y="0.5" width="59" height="79" fill="white"/>
<path d="M21.7738 25.9091V55H18.2511V29.6023H18.0806L10.9783 34.3182V30.7386L18.2511 25.9091H21.7738ZM39.2312 55.3977C37.5645 55.3977 36.0636 55.0663 34.7283 54.4034C33.3931 53.7405 32.323 52.8314 31.5181 51.6761C30.7132 50.5208 30.2728 49.2045 30.1971 47.7273H33.6062C33.7388 49.0436 34.3353 50.1326 35.396 50.9943C36.466 51.8466 37.7444 52.2727 39.2312 52.2727C40.4244 52.2727 41.485 51.9934 42.413 51.4347C43.3505 50.8759 44.0844 50.1089 44.6147 49.1335C45.1545 48.1487 45.4244 47.036 45.4244 45.7955C45.4244 44.5265 45.145 43.3949 44.5863 42.4006C44.0371 41.3968 43.2795 40.6061 42.3136 40.0284C41.3477 39.4508 40.2444 39.1572 39.0039 39.1477C38.1138 39.1383 37.1999 39.2756 36.2624 39.5597C35.3249 39.8343 34.5531 40.1894 33.9471 40.625L30.6516 40.2273L32.413 25.9091H47.5266V29.0341H35.3675L34.3448 37.6136H34.5153C35.1119 37.1402 35.86 36.7472 36.7596 36.4347C37.6592 36.1222 38.5967 35.9659 39.5721 35.9659C41.3524 35.9659 42.9386 36.392 44.3306 37.2443C45.7321 38.0871 46.8306 39.2424 47.6261 40.7102C48.431 42.178 48.8335 43.8542 48.8335 45.7386C48.8335 47.5947 48.4168 49.2519 47.5835 50.7102C46.7596 52.1591 45.6232 53.3049 44.1744 54.1477C42.7255 54.9811 41.0778 55.3977 39.2312 55.3977Z" fill="#A40038"/>
<rect x="0.5" y="0.5" width="59" height="79" stroke="#A40038"/>
</svg>
