<svg width="60" height="80" viewBox="0 0 60 80" fill="none" xmlns="http://www.w3.org/2000/svg">
<rect x="0.5" y="0.5" width="59" height="79" fill="white"/>
<path d="M8.40199 55V52.4432L18.0043 41.9318C19.1312 40.7008 20.0592 39.6307 20.7884 38.7216C21.5175 37.803 22.0573 36.9413 22.4077 36.1364C22.7675 35.322 22.9474 34.4697 22.9474 33.5795C22.9474 32.5568 22.7012 31.6714 22.2088 30.9233C21.7259 30.1752 21.063 29.5975 20.2202 29.1903C19.3774 28.7831 18.4304 28.5795 17.3793 28.5795C16.2618 28.5795 15.2865 28.8116 14.4531 29.2756C13.6293 29.7301 12.9901 30.3693 12.5355 31.1932C12.0904 32.017 11.8679 32.983 11.8679 34.0909H8.51562C8.51562 32.3864 8.90862 30.8902 9.6946 29.6023C10.4806 28.3144 11.5507 27.3106 12.9048 26.5909C14.2685 25.8712 15.7978 25.5114 17.4929 25.5114C19.1974 25.5114 20.7079 25.8712 22.0241 26.5909C23.3404 27.3106 24.3726 28.2812 25.1207 29.5028C25.8688 30.7244 26.2429 32.0833 26.2429 33.5795C26.2429 34.6496 26.0488 35.696 25.6605 36.7188C25.2817 37.732 24.6188 38.8636 23.6719 40.1136C22.7344 41.3542 21.4323 42.8693 19.7656 44.6591L13.2315 51.6477V51.875H26.7543V55H8.40199ZM42.1094 55.3977C39.9692 55.3977 38.1463 54.8153 36.6406 53.6506C35.1349 52.4763 33.9844 50.7765 33.1889 48.5511C32.3935 46.3163 31.9957 43.6174 31.9957 40.4545C31.9957 37.3106 32.3935 34.6259 33.1889 32.4006C33.9938 30.1657 35.1491 28.4612 36.6548 27.2869C38.17 26.1032 39.9882 25.5114 42.1094 25.5114C44.2306 25.5114 46.044 26.1032 47.5497 27.2869C49.0649 28.4612 50.2202 30.1657 51.0156 32.4006C51.8205 34.6259 52.223 37.3106 52.223 40.4545C52.223 43.6174 51.8253 46.3163 51.0298 48.5511C50.2344 50.7765 49.0838 52.4763 47.5781 53.6506C46.0724 54.8153 44.2495 55.3977 42.1094 55.3977ZM42.1094 52.2727C44.2306 52.2727 45.8783 51.25 47.0526 49.2045C48.2268 47.1591 48.8139 44.2424 48.8139 40.4545C48.8139 37.9356 48.544 35.7907 48.0043 34.0199C47.474 32.2491 46.7069 30.8996 45.7031 29.9716C44.7088 29.0436 43.5109 28.5795 42.1094 28.5795C40.0071 28.5795 38.3641 29.6165 37.1804 31.6903C35.9967 33.7547 35.4048 36.6761 35.4048 40.4545C35.4048 42.9735 35.67 45.1136 36.2003 46.875C36.7306 48.6364 37.4929 49.9763 38.4872 50.8949C39.491 51.8134 40.6984 52.2727 42.1094 52.2727Z" fill="#DF892E"/>
<rect x="0.5" y="0.5" width="59" height="79" stroke="#DF892E"/>
</svg>
